<mxfile host="app.diagrams.net" modified="2023-02-18T11:30:21.803Z" agent="5.0 (Macintosh; Intel Mac OS X 10_15_7) AppleWebKit/537.36 (KHTML, like Gecko) Chrome/109.0.0.0 Safari/537.36" version="20.8.3" etag="54OZuVz9gJP0uiNoAdqK" type="github" pages="4">
  <diagram id="N5d8Xmekq0FIWtA8UG6T" name="arcitecture">
    <mxGraphModel dx="925" dy="534" grid="1" gridSize="10" guides="1" tooltips="1" connect="1" arrows="1" fold="1" page="1" pageScale="1" pageWidth="827" pageHeight="1169" math="0" shadow="0">
      <root>
        <mxCell id="0" />
        <mxCell id="1" parent="0" />
        <mxCell id="tsfLYOpmj_f98KLFveLr-18" value="" style="rounded=1;whiteSpace=wrap;html=1;dashed=1;" vertex="1" parent="1">
          <mxGeometry x="190" y="110" width="280" height="160" as="geometry" />
        </mxCell>
        <mxCell id="tsfLYOpmj_f98KLFveLr-4" style="edgeStyle=orthogonalEdgeStyle;rounded=0;orthogonalLoop=1;jettySize=auto;html=1;entryX=1;entryY=0.5;entryDx=0;entryDy=0;curved=1;" edge="1" parent="1" source="tsfLYOpmj_f98KLFveLr-1" target="tsfLYOpmj_f98KLFveLr-3">
          <mxGeometry relative="1" as="geometry" />
        </mxCell>
        <mxCell id="tsfLYOpmj_f98KLFveLr-1" value="" style="rounded=1;whiteSpace=wrap;html=1;fillColor=#f5f5f5;fontColor=#333333;strokeColor=#666666;dashed=1;" vertex="1" parent="1">
          <mxGeometry x="200" y="120" width="80" height="40" as="geometry" />
        </mxCell>
        <mxCell id="tsfLYOpmj_f98KLFveLr-2" value="rserver" style="rounded=1;whiteSpace=wrap;html=1;" vertex="1" parent="1">
          <mxGeometry x="210" y="130" width="80" height="40" as="geometry" />
        </mxCell>
        <mxCell id="tsfLYOpmj_f98KLFveLr-3" value="" style="shape=image;verticalLabelPosition=bottom;labelBackgroundColor=default;verticalAlign=top;aspect=fixed;imageAspect=0;image=https://upload.wikimedia.org/wikipedia/commons/thumb/7/77/Apache_ZooKeeper_logo.svg/1200px-Apache_ZooKeeper_logo.svg.png;" vertex="1" parent="1">
          <mxGeometry x="80" y="120" width="74.03" height="40" as="geometry" />
        </mxCell>
        <mxCell id="tsfLYOpmj_f98KLFveLr-13" style="edgeStyle=orthogonalEdgeStyle;curved=1;rounded=0;orthogonalLoop=1;jettySize=auto;html=1;entryX=0.5;entryY=1;entryDx=0;entryDy=0;exitX=0;exitY=0.5;exitDx=0;exitDy=0;" edge="1" parent="1" source="tsfLYOpmj_f98KLFveLr-7" target="tsfLYOpmj_f98KLFveLr-2">
          <mxGeometry relative="1" as="geometry" />
        </mxCell>
        <mxCell id="tsfLYOpmj_f98KLFveLr-7" value="mserver" style="rounded=1;whiteSpace=wrap;html=1;fillColor=#f5f5f5;fontColor=#333333;strokeColor=#666666;" vertex="1" parent="1">
          <mxGeometry x="360" y="200" width="80" height="40" as="geometry" />
        </mxCell>
        <mxCell id="tsfLYOpmj_f98KLFveLr-8" value="" style="rounded=1;whiteSpace=wrap;html=1;fillColor=#f5f5f5;fontColor=#333333;strokeColor=#666666;" vertex="1" parent="1">
          <mxGeometry x="370" y="210" width="80" height="40" as="geometry" />
        </mxCell>
        <mxCell id="tsfLYOpmj_f98KLFveLr-9" value="mserver" style="rounded=1;whiteSpace=wrap;html=1;" vertex="1" parent="1">
          <mxGeometry x="380" y="220" width="80" height="40" as="geometry" />
        </mxCell>
        <mxCell id="tsfLYOpmj_f98KLFveLr-14" style="edgeStyle=orthogonalEdgeStyle;curved=1;rounded=0;orthogonalLoop=1;jettySize=auto;html=1;entryX=1;entryY=0.25;entryDx=0;entryDy=0;" edge="1" parent="1" source="tsfLYOpmj_f98KLFveLr-10" target="tsfLYOpmj_f98KLFveLr-2">
          <mxGeometry relative="1" as="geometry">
            <mxPoint x="250" y="170" as="targetPoint" />
          </mxGeometry>
        </mxCell>
        <mxCell id="tsfLYOpmj_f98KLFveLr-10" value="mserver" style="rounded=1;whiteSpace=wrap;html=1;fillColor=#f5f5f5;fontColor=#333333;strokeColor=#666666;" vertex="1" parent="1">
          <mxGeometry x="360" y="120" width="80" height="40" as="geometry" />
        </mxCell>
        <mxCell id="tsfLYOpmj_f98KLFveLr-11" value="" style="rounded=1;whiteSpace=wrap;html=1;fillColor=#f5f5f5;fontColor=#333333;strokeColor=#666666;" vertex="1" parent="1">
          <mxGeometry x="370" y="130" width="80" height="40" as="geometry" />
        </mxCell>
        <mxCell id="tsfLYOpmj_f98KLFveLr-12" value="dserver" style="rounded=1;whiteSpace=wrap;html=1;" vertex="1" parent="1">
          <mxGeometry x="380" y="140" width="80" height="40" as="geometry" />
        </mxCell>
        <mxCell id="tsfLYOpmj_f98KLFveLr-17" style="edgeStyle=orthogonalEdgeStyle;curved=1;rounded=0;orthogonalLoop=1;jettySize=auto;html=1;entryX=0.547;entryY=1.05;entryDx=0;entryDy=0;entryPerimeter=0;" edge="1" parent="1" source="tsfLYOpmj_f98KLFveLr-15" target="tsfLYOpmj_f98KLFveLr-3">
          <mxGeometry relative="1" as="geometry" />
        </mxCell>
        <mxCell id="tsfLYOpmj_f98KLFveLr-19" style="edgeStyle=orthogonalEdgeStyle;curved=1;rounded=0;orthogonalLoop=1;jettySize=auto;html=1;entryX=0;entryY=0.813;entryDx=0;entryDy=0;entryPerimeter=0;" edge="1" parent="1" source="tsfLYOpmj_f98KLFveLr-15" target="tsfLYOpmj_f98KLFveLr-18">
          <mxGeometry relative="1" as="geometry" />
        </mxCell>
        <mxCell id="tsfLYOpmj_f98KLFveLr-15" value="client" style="rounded=1;whiteSpace=wrap;html=1;" vertex="1" parent="1">
          <mxGeometry x="80" y="220" width="80" height="40" as="geometry" />
        </mxCell>
      </root>
    </mxGraphModel>
  </diagram>
  <diagram id="FkfHG8LWxEAU3Ykb4FFA" name="rserver">
    <mxGraphModel dx="1304" dy="753" grid="1" gridSize="10" guides="1" tooltips="1" connect="1" arrows="1" fold="1" page="1" pageScale="1" pageWidth="827" pageHeight="1169" math="0" shadow="0">
      <root>
        <mxCell id="0" />
        <mxCell id="1" parent="0" />
        <mxCell id="i38hwcyPGspTdhQXOS63-2" style="edgeStyle=orthogonalEdgeStyle;curved=1;rounded=0;orthogonalLoop=1;jettySize=auto;html=1;entryX=0;entryY=0.5;entryDx=0;entryDy=0;" edge="1" parent="1" source="wLpejg33g4R9aETPVUCR-1" target="i38hwcyPGspTdhQXOS63-1">
          <mxGeometry relative="1" as="geometry" />
        </mxCell>
        <mxCell id="wLpejg33g4R9aETPVUCR-1" value="rserver&lt;br&gt;(standby)" style="rounded=1;whiteSpace=wrap;html=1;" vertex="1" parent="1">
          <mxGeometry x="240" y="40" width="80" height="40" as="geometry" />
        </mxCell>
        <mxCell id="i38hwcyPGspTdhQXOS63-1" value="" style="shape=image;verticalLabelPosition=bottom;labelBackgroundColor=default;verticalAlign=top;aspect=fixed;imageAspect=0;image=https://upload.wikimedia.org/wikipedia/commons/thumb/7/77/Apache_ZooKeeper_logo.svg/1200px-Apache_ZooKeeper_logo.svg.png;" vertex="1" parent="1">
          <mxGeometry x="400" y="80" width="74.03" height="40" as="geometry" />
        </mxCell>
        <mxCell id="i38hwcyPGspTdhQXOS63-4" style="edgeStyle=orthogonalEdgeStyle;curved=1;rounded=0;orthogonalLoop=1;jettySize=auto;html=1;entryX=0;entryY=0.5;entryDx=0;entryDy=0;" edge="1" parent="1" source="i38hwcyPGspTdhQXOS63-3" target="i38hwcyPGspTdhQXOS63-1">
          <mxGeometry relative="1" as="geometry" />
        </mxCell>
        <mxCell id="i38hwcyPGspTdhQXOS63-3" value="rserver&lt;br&gt;（leader）" style="rounded=1;whiteSpace=wrap;html=1;fillColor=#f8cecc;strokeColor=#b85450;" vertex="1" parent="1">
          <mxGeometry x="240" y="120" width="80" height="40" as="geometry" />
        </mxCell>
        <mxCell id="i38hwcyPGspTdhQXOS63-6" style="edgeStyle=orthogonalEdgeStyle;curved=1;rounded=0;orthogonalLoop=1;jettySize=auto;html=1;entryX=0;entryY=0.5;entryDx=0;entryDy=0;" edge="1" parent="1" source="i38hwcyPGspTdhQXOS63-5" target="i38hwcyPGspTdhQXOS63-3">
          <mxGeometry relative="1" as="geometry" />
        </mxCell>
        <mxCell id="i38hwcyPGspTdhQXOS63-5" value="client" style="rounded=1;whiteSpace=wrap;html=1;" vertex="1" parent="1">
          <mxGeometry x="80" y="80" width="80" height="40" as="geometry" />
        </mxCell>
        <mxCell id="85tSOclc1oCdCPwvX2sM-3" style="edgeStyle=orthogonalEdgeStyle;curved=1;rounded=0;orthogonalLoop=1;jettySize=auto;html=1;entryX=0;entryY=0.5;entryDx=0;entryDy=0;" edge="1" parent="1" source="85tSOclc1oCdCPwvX2sM-1" target="85tSOclc1oCdCPwvX2sM-2">
          <mxGeometry relative="1" as="geometry" />
        </mxCell>
        <mxCell id="85tSOclc1oCdCPwvX2sM-5" style="edgeStyle=orthogonalEdgeStyle;curved=1;rounded=0;orthogonalLoop=1;jettySize=auto;html=1;entryX=0;entryY=0.5;entryDx=0;entryDy=0;" edge="1" parent="1" source="85tSOclc1oCdCPwvX2sM-1" target="85tSOclc1oCdCPwvX2sM-4">
          <mxGeometry relative="1" as="geometry" />
        </mxCell>
        <mxCell id="85tSOclc1oCdCPwvX2sM-7" style="edgeStyle=orthogonalEdgeStyle;curved=1;rounded=0;orthogonalLoop=1;jettySize=auto;html=1;entryX=0;entryY=0.5;entryDx=0;entryDy=0;" edge="1" parent="1" source="85tSOclc1oCdCPwvX2sM-1" target="85tSOclc1oCdCPwvX2sM-6">
          <mxGeometry relative="1" as="geometry" />
        </mxCell>
        <mxCell id="85tSOclc1oCdCPwvX2sM-9" style="edgeStyle=orthogonalEdgeStyle;curved=1;rounded=0;orthogonalLoop=1;jettySize=auto;html=1;entryX=0;entryY=0.5;entryDx=0;entryDy=0;" edge="1" parent="1" source="85tSOclc1oCdCPwvX2sM-1" target="85tSOclc1oCdCPwvX2sM-8">
          <mxGeometry relative="1" as="geometry" />
        </mxCell>
        <mxCell id="85tSOclc1oCdCPwvX2sM-11" style="edgeStyle=orthogonalEdgeStyle;curved=1;rounded=0;orthogonalLoop=1;jettySize=auto;html=1;entryX=0;entryY=0.5;entryDx=0;entryDy=0;" edge="1" parent="1" source="85tSOclc1oCdCPwvX2sM-1" target="85tSOclc1oCdCPwvX2sM-10">
          <mxGeometry relative="1" as="geometry" />
        </mxCell>
        <mxCell id="85tSOclc1oCdCPwvX2sM-13" style="edgeStyle=orthogonalEdgeStyle;curved=1;rounded=0;orthogonalLoop=1;jettySize=auto;html=1;entryX=0;entryY=0.5;entryDx=0;entryDy=0;" edge="1" parent="1" source="85tSOclc1oCdCPwvX2sM-1" target="85tSOclc1oCdCPwvX2sM-12">
          <mxGeometry relative="1" as="geometry" />
        </mxCell>
        <mxCell id="85tSOclc1oCdCPwvX2sM-1" value="rserver" style="rounded=1;whiteSpace=wrap;html=1;" vertex="1" parent="1">
          <mxGeometry x="80" y="320" width="80" height="40" as="geometry" />
        </mxCell>
        <mxCell id="85tSOclc1oCdCPwvX2sM-2" value="rs_service" style="rounded=1;whiteSpace=wrap;html=1;" vertex="1" parent="1">
          <mxGeometry x="240" y="280" width="120" height="40" as="geometry" />
        </mxCell>
        <mxCell id="85tSOclc1oCdCPwvX2sM-4" value="cli_service" style="rounded=1;whiteSpace=wrap;html=1;" vertex="1" parent="1">
          <mxGeometry x="240" y="330" width="120" height="40" as="geometry" />
        </mxCell>
        <mxCell id="85tSOclc1oCdCPwvX2sM-6" value="dserver_service" style="rounded=1;whiteSpace=wrap;html=1;" vertex="1" parent="1">
          <mxGeometry x="240" y="380" width="120" height="40" as="geometry" />
        </mxCell>
        <mxCell id="85tSOclc1oCdCPwvX2sM-8" value="mserver_service" style="rounded=1;whiteSpace=wrap;html=1;" vertex="1" parent="1">
          <mxGeometry x="240" y="430" width="120" height="40" as="geometry" />
        </mxCell>
        <mxCell id="85tSOclc1oCdCPwvX2sM-10" value="dashbord_service" style="rounded=1;whiteSpace=wrap;html=1;" vertex="1" parent="1">
          <mxGeometry x="240" y="480" width="120" height="40" as="geometry" />
        </mxCell>
        <mxCell id="85tSOclc1oCdCPwvX2sM-12" value="daemon" style="rounded=1;whiteSpace=wrap;html=1;" vertex="1" parent="1">
          <mxGeometry x="240" y="530" width="120" height="40" as="geometry" />
        </mxCell>
      </root>
    </mxGraphModel>
  </diagram>
  <diagram id="dGKto7qPCBAthofQGX32" name="mserver">
    <mxGraphModel dx="1434" dy="828" grid="1" gridSize="10" guides="1" tooltips="1" connect="1" arrows="1" fold="1" page="1" pageScale="1" pageWidth="827" pageHeight="1169" math="0" shadow="0">
      <root>
        <mxCell id="0" />
        <mxCell id="1" parent="0" />
      </root>
    </mxGraphModel>
  </diagram>
  <diagram id="gXjjD0P48IjPj1rYfW77" name="dserver">
    <mxGraphModel dx="1434" dy="828" grid="1" gridSize="10" guides="1" tooltips="1" connect="1" arrows="1" fold="1" page="1" pageScale="1" pageWidth="827" pageHeight="1169" math="0" shadow="0">
      <root>
        <mxCell id="0" />
        <mxCell id="1" parent="0" />
      </root>
    </mxGraphModel>
  </diagram>
</mxfile>
